<svg width="125" height="48" viewBox="0 0 125 48" fill="none" xmlns="http://www.w3.org/2000/svg">
<rect width="125" height="48" fill="#CFFF00"/>
<g clip-path="url(#clip0_1_2)">
<path fill-rule="evenodd" clip-rule="evenodd" d="M32.136 14V26.6572C32.136 28.6081 33.6258 29.9125 35.1391 29.9125C35.1391 29.9125 35.686 29.8981 35.977 29.7782L37.5374 33.1687C37.5374 33.1687 35.7644 33.9997 34.5079 33.9997C30.6933 33.9997 28 30.9094 28 25.9297V14L32.136 14ZM46.125 15.4881C51.2852 15.4881 55.2204 19.4667 55.2204 24.7948C55.2204 30.1218 51.4146 34 46.125 34C40.8668 34 37.062 30.1218 37.062 24.7948C37.062 19.4329 40.9961 15.4881 46.125 15.4881V15.4881ZM61.6422 14.0002V15.8947H72.4165V26.6472C72.4165 28.5991 73.8681 29.8102 75.3814 29.8102C77.2161 29.8102 78.5383 28.3972 78.5383 26.5129V15.8947H82.8399V25.5775C82.8399 30.385 79.9947 33.9897 75.3147 33.9897C71.4541 33.9897 68.2815 30.8994 68.2815 25.9207V20.3908H61.6422V26.6564C61.6422 28.6083 62.9594 29.9127 64.4717 29.9127C64.4717 29.9127 64.8981 29.8983 65.1892 29.7784L66.7015 33.1689C66.7015 33.1689 64.9324 33.9999 63.6759 33.9999C59.8613 33.9999 57.1759 30.9086 57.1759 25.9299V14.0002H61.6422ZM102.813 15.4288C106.673 15.4288 110 18.519 110 23.4987V33.7155H105.534V22.7723C105.534 20.8193 104.083 19.6082 102.57 19.6082C100.735 19.6082 99.412 21.0212 99.412 22.9055V33.7155H95.1113V22.7723C95.1113 20.8193 93.7421 19.6082 92.2298 19.6082C90.395 19.6082 89.1552 21.0212 89.1552 22.9055V33.7155H84.8535V23.842C84.8535 19.0344 87.7468 15.4288 92.4278 15.4288C94.3595 15.4288 96.1453 16.2034 97.4292 17.601C98.722 16.2392 100.596 15.4288 102.813 15.4288V15.4288ZM46.125 19.6009C43.4474 19.6009 41.5127 21.7588 41.5127 24.7948C41.5127 27.7949 43.4807 29.8861 46.125 29.8861C48.8017 29.8861 50.7697 27.7949 50.7697 24.7948C50.7697 21.7936 48.8017 19.6009 46.125 19.6009V19.6009Z" fill="black"/>
</g>
<defs>
<clipPath id="clip0_1_2">
<rect width="82" height="20" fill="white" transform="translate(28 14)"/>
</clipPath>
</defs>
</svg>
